# xmcd
#
# Track frame offsets:
#	150
#	8693
#	15643
#	26653
#	35149
#	44933
#	51914
#	65469
#	79510
#	87421
#	97474
#	104911
#	114214
#	130132
#	139442
#	150048
#	158223
#	168941
#	178173
#	188074
#	195363
#	202509
#	214223
#	225989
#
# Disc length: 3138 seconds
#
# Revision: 0
# Processed by: cddbd v1.5.2PL0 Copyright (c) Steve Scherf et al.
# Submitted via: dBpowerAMP V4.0
#
DISCID=440c4018
DTITLE=Mac Martin and The Dixie Travelers - 24 Bluegrass Favorites
DYEAR=1998
DGENRE=Bluegrass
TTITLE0=A Faded Rose
TTITLE1=Fiddler's Farewell
TTITLE2=After Dark
TTITLE3=This World Can't Stand Alone
TTITLE4=Charlotte Breakdown
TTITLE5=Francis Lee
TTITLE6=Nobody Cares
TTITLE7=Black Mountain Blues
TTITLE8=Going Home This Evening
TTITLE9=Southern Moon
TTITLE10=Train On The Island
TTITLE11=Would You Care
TTITLE12=The Last Request
TTITLE13=Mustang
TTITLE14=Why Do You Weep
TTITLE15=A Silent Place
TTITLE16=Gold Watch And Chain
TTITLE17=Backtrackin'
TTITLE18=When The Cold Rain Is Falling
TTITLE19=I'll Live On
TTITLE20=Stacy Lynn
TTITLE21=Swingin' A Nine Pound Hammer
TTITLE22=Is She Praying There?
TTITLE23=Dixie Breakdown
EXTD=
EXTT0=
EXTT1=
EXTT2=
EXTT3=
EXTT4=
EXTT5=
EXTT6=
EXTT7=
EXTT8=
EXTT9=
EXTT10=
EXTT11=
EXTT12=
EXTT13=
EXTT14=
EXTT15=
EXTT16=
EXTT17=
EXTT18=
EXTT19=
EXTT20=
EXTT21=
EXTT22=
EXTT23=
PLAYORDER=
